<svg width="20" height="20" viewBox="0 0 20 20" fill="none" xmlns="http://www.w3.org/2000/svg">
    <path d="M8.49313 16.6295C8.49313 16.8679 8.42244 17.1009 8.28999 17.2992C8.15754 17.4974 7.96929 17.6519 7.74904 17.7431C7.52879 17.8343 7.28644 17.8582 7.05262 17.8117C6.8188 17.7652 6.60403 17.6504 6.43546 17.4818C6.26688 17.3133 6.15208 17.0985 6.10558 16.8647C6.05907 16.6308 6.08294 16.3885 6.17417 16.1682C6.2654 15.948 6.41989 15.7597 6.61811 15.6273C6.81633 15.4948 7.04938 15.4242 7.28777 15.4242C7.60745 15.4242 7.91404 15.5511 8.14009 15.7772C8.36614 16.0032 8.49313 16.3098 8.49313 16.6295ZM15.1226 15.4242C14.8842 15.4242 14.6512 15.4948 14.4529 15.6273C14.2547 15.7597 14.1002 15.948 14.009 16.1682C13.9178 16.3885 13.8939 16.6308 13.9404 16.8647C13.9869 17.0985 14.1017 17.3133 14.2703 17.4818C14.4389 17.6504 14.6536 17.7652 14.8874 17.8117C15.1213 17.8582 15.3636 17.8343 15.5839 17.7431C15.8041 17.6519 15.9924 17.4974 16.1248 17.2992C16.2573 17.1009 16.328 16.8679 16.328 16.6295C16.328 16.3098 16.201 16.0032 15.9749 15.7772C15.7489 15.5511 15.4423 15.4242 15.1226 15.4242ZM18.7123 5.95833L16.563 12.9426C16.4504 13.3129 16.2215 13.637 15.9102 13.8668C15.5989 14.0967 15.2218 14.2201 14.8348 14.2188H7.59439C7.20187 14.2173 6.82039 14.0887 6.50708 13.8523C6.19377 13.6158 5.96549 13.2843 5.85641 12.9072L3.1308 3.37058H1.86366C1.70382 3.37058 1.55053 3.30708 1.43751 3.19406C1.32448 3.08103 1.26099 2.92774 1.26099 2.7679C1.26099 2.60806 1.32448 2.45477 1.43751 2.34174C1.55053 2.22872 1.70382 2.16522 1.86366 2.16522H3.1308C3.39252 2.16609 3.64692 2.2517 3.85592 2.40923C4.06492 2.56676 4.21728 2.78775 4.2902 3.03911L4.90117 5.17861H18.136C18.2303 5.17858 18.3233 5.20068 18.4075 5.24314C18.4917 5.28559 18.5648 5.34722 18.6209 5.42307C18.6769 5.49891 18.7144 5.58685 18.7303 5.67982C18.7462 5.77278 18.74 5.86818 18.7123 5.95833ZM17.3201 6.38397H5.24545L7.01506 12.5765C7.05106 12.7024 7.12707 12.8131 7.23159 12.8919C7.33612 12.9708 7.46347 13.0134 7.59439 13.0134H14.8348C14.9638 13.0135 15.0893 12.9722 15.1931 12.8955C15.2968 12.8189 15.3732 12.7111 15.4111 12.5878L17.3201 6.38397Z" fill="white"/>
</svg>
